# xmcd CD database file
#
# Track frame offsets:
#	150
#	35361
#	73475
#	118259
#	166538
#	208345
#	264686
#	300933
#
# Disc length: 4656 seconds
#
# Revision: 0
# Processed by: cddbd v1.5.2PL0 Copyright (c) Steve Scherf et al.
# Submitted via: CDex 1.77
#
DISCID=71122e08
DTITLE=kons.wien.jazzorchestra and Bob Mintzer - The kons.wien.jazzorchestra Plays The Music Of Bob Mintzer
DYEAR=2013
DGENRE=Jazz
TTITLE0=My Shining Hour
TTITLE1=Acha
TTITLE2=Truth
TTITLE3=The Eye Of The Hurricane
TTITLE4=Yeah, Yeah, Yeah
TTITLE5=Runferyerlife
TTITLE6=El Caborojeno
TTITLE7=Swangalang
EXTD=YEAR: 2013
EXTT0=
EXTT1=
EXTT2=
EXTT3=
EXTT4=
EXTT5=
EXTT6=
EXTT7=
PLAYORDER=
